<svg width="100" height="101" viewBox="0 0 100 101" fill="none" xmlns="http://www.w3.org/2000/svg">
<mask id="mask0_303_5993" style="mask-type:alpha" maskUnits="userSpaceOnUse" x="0" y="0" width="100" height="101">
<rect y="0.353027" width="100" height="100" fill="#D9D9D9"/>
</mask>
<g mask="url(#mask0_303_5993)">
<path d="M21.0417 82.4364C20.1389 82.4364 19.393 82.1405 18.8042 81.5489C18.2125 80.96 17.9167 80.2141 17.9167 79.3114V39.6239C17.9167 38.9989 18.0903 38.4086 18.4375 37.853C18.7847 37.2975 19.2708 36.9155 19.8958 36.7072L58.2292 21.9155C59.2708 21.4989 60.243 21.603 61.1458 22.228C62.0486 22.853 62.5 23.7211 62.5 24.8322V55.7697H70.4167C70.4167 54.1725 70.9889 52.8002 72.1333 51.653C73.2806 50.5086 74.6528 49.9364 76.25 49.9364C77.8472 49.9364 79.2194 50.5086 80.3667 51.653C81.5111 52.8002 82.0833 54.1725 82.0833 55.7697V79.3114C82.0833 80.2141 81.7889 80.96 81.2 81.5489C80.6083 82.1405 79.8611 82.4364 78.9583 82.4364H21.0417ZM20.8333 79.5197H42.9167V58.8947C42.9167 57.9919 43.2125 57.2447 43.8042 56.653C44.393 56.0641 45.1389 55.7697 46.0417 55.7697H59.5833V24.4155L20.8333 39.4155V79.5197ZM45.8333 79.5197H59.5833V73.6864C59.5833 72.9225 59.8611 72.2447 60.4167 71.653C60.9722 71.0641 61.6667 70.7697 62.5 70.7697C63.2639 70.7697 63.9417 71.0641 64.5333 71.653C65.1222 72.2447 65.4167 72.9225 65.4167 73.6864V79.5197H79.1667V58.6864H45.8333V79.5197Z" fill="#03254C"/>
</g>
</svg>
