<svg width="280" height="280" viewBox="0 0 280 280" fill="none" xmlns="http://www.w3.org/2000/svg">
<circle cx="140" cy="140" r="138.5" fill="#03254C" stroke="url(#paint0_linear_416_1034)" stroke-width="3"/>
<circle cx="140" cy="140" r="126.677" fill="#03254C" stroke="url(#paint1_linear_416_1034)" stroke-width="3"/>
<mask id="mask0_416_1034" style="mask-type:alpha" maskUnits="userSpaceOnUse" x="80" y="79" width="120" height="121">
<rect x="80" y="79.9995" width="120" height="120" fill="#D9D9D9"/>
</mask>
<g mask="url(#mask0_416_1034)">
<path d="M140 154.5C144.75 154.5 148.772 152.853 152.065 149.56C155.355 146.27 157 142.25 157 137.5C157 132.75 155.355 128.728 152.065 125.435C148.772 122.145 144.75 120.5 140 120.5C135.25 120.5 131.23 122.145 127.94 125.435C124.647 128.728 123 132.75 123 137.5C123 142.25 124.647 146.27 127.94 149.56C131.23 152.853 135.25 154.5 140 154.5ZM140 151C136.25 151 133.063 149.686 130.44 147.06C127.813 144.436 126.5 141.25 126.5 137.5C126.5 133.75 127.813 130.561 130.44 127.935C133.063 125.311 136.25 124 140 124C143.75 124 146.938 125.311 149.565 127.935C152.188 130.561 153.5 133.75 153.5 137.5C153.5 141.25 152.188 144.436 149.565 147.06C146.938 149.686 143.75 151 140 151ZM140 168.5C130.083 168.5 120.938 165.916 112.565 160.75C104.188 155.583 97.7083 148.583 93.125 139.75C92.9583 139.416 92.8333 139.063 92.75 138.69C92.6667 138.313 92.625 137.916 92.625 137.5C92.625 137.083 92.6667 136.686 92.75 136.31C92.8333 135.936 92.9583 135.583 93.125 135.25C97.7083 126.416 104.188 119.416 112.565 114.25C120.938 109.083 130.083 106.5 140 106.5C149.917 106.5 159.063 109.083 167.44 114.25C175.813 119.416 182.292 126.416 186.875 135.25C187.042 135.583 187.167 135.936 187.25 136.31C187.333 136.686 187.375 137.083 187.375 137.5C187.375 137.916 187.333 138.313 187.25 138.69C187.167 139.063 187.042 139.416 186.875 139.75C182.292 148.583 175.813 155.583 167.44 160.75C159.063 165.916 149.917 168.5 140 168.5ZM140 165C149.417 165 158.063 162.52 165.94 157.56C173.813 152.603 179.833 145.916 184 137.5C179.833 129.083 173.813 122.395 165.94 117.435C158.063 112.478 149.417 110 140 110C130.583 110 121.937 112.478 114.06 117.435C106.187 122.395 100.167 129.083 96 137.5C100.167 145.916 106.187 152.603 114.06 157.56C121.937 162.52 130.583 165 140 165Z" fill="white"/>
</g>
<defs>
<linearGradient id="paint0_linear_416_1034" x1="140" y1="0" x2="140" y2="280" gradientUnits="userSpaceOnUse">
<stop stop-color="#D1AB49"/>
<stop offset="1" stop-color="#D19C15"/>
</linearGradient>
<linearGradient id="paint1_linear_416_1034" x1="140" y1="11.8232" x2="140" y2="268.177" gradientUnits="userSpaceOnUse">
<stop stop-color="#D1AB49"/>
<stop offset="1" stop-color="#D19C15"/>
</linearGradient>
</defs>
</svg>
