<svg width="280" height="281" viewBox="0 0 280 281" fill="none" xmlns="http://www.w3.org/2000/svg">
<circle cx="140" cy="140.353" r="138.5" fill="#03254C" stroke="url(#paint0_linear_415_1033)" stroke-width="3"/>
<circle cx="140" cy="140.353" r="126.677" fill="#03254C" stroke="url(#paint1_linear_415_1033)" stroke-width="3"/>
<mask id="mask0_415_1033" style="mask-type:alpha" maskUnits="userSpaceOnUse" x="80" y="80" width="120" height="121">
<rect x="80" y="80.353" width="120" height="120" fill="#D9D9D9"/>
</mask>
<g mask="url(#mask0_415_1033)">
<path d="M118.125 143.602C119.792 140.269 121.625 137.06 123.625 133.977C125.625 130.894 127.834 127.894 130.25 124.977L122.375 123.352C121.709 123.185 121.064 123.205 120.44 123.412C119.814 123.622 119.25 123.977 118.75 124.477L106.125 137.102C105.875 137.352 105.792 137.644 105.875 137.977C105.959 138.31 106.167 138.56 106.5 138.727L118.125 143.602ZM174.5 105.352C166.25 106.019 159.314 107.705 153.69 110.412C148.064 113.122 142.709 117.019 137.625 122.102C133.875 125.852 130.625 129.727 127.875 133.727C125.125 137.727 122.792 141.769 120.875 145.852L135 159.977C139.084 158.06 143.147 155.727 147.19 152.977C151.23 150.227 155.125 146.977 158.875 143.227C163.959 138.144 167.855 132.81 170.565 127.227C173.272 121.644 174.959 114.727 175.625 106.477V106.037C175.625 105.914 175.542 105.769 175.375 105.602C175.209 105.435 175.064 105.352 174.94 105.352H174.5ZM148 132.977C146.667 131.644 146 130.06 146 128.227C146 126.394 146.667 124.81 148 123.477C149.334 122.144 150.917 121.477 152.75 121.477C154.584 121.477 156.167 122.144 157.5 123.477C158.834 124.81 159.5 126.394 159.5 128.227C159.5 130.06 158.834 131.644 157.5 132.977C156.167 134.31 154.584 134.977 152.75 134.977C150.917 134.977 149.334 134.31 148 132.977ZM137.25 162.852L142.125 174.477C142.292 174.81 142.542 174.999 142.875 175.042C143.209 175.082 143.5 174.977 143.75 174.727L156.375 162.227C156.875 161.727 157.23 161.165 157.44 160.542C157.647 159.915 157.667 159.269 157.5 158.602L155.875 150.727C152.959 153.144 149.959 155.352 146.875 157.352C143.792 159.352 140.584 161.185 137.25 162.852ZM179 105.602C178.75 113.685 177.145 120.997 174.185 127.537C171.229 134.08 166.917 140.185 161.25 145.852C160.834 146.269 160.437 146.644 160.06 146.977C159.687 147.31 159.292 147.685 158.875 148.102L160.875 157.852C161.125 159.102 161.064 160.31 160.69 161.477C160.314 162.644 159.667 163.685 158.75 164.602L145.375 177.977C144.459 178.894 143.334 179.227 142 178.977C140.667 178.727 139.75 177.977 139.25 176.727L133.75 163.727L117.125 146.977L104.125 141.477C102.875 140.977 102.147 140.06 101.94 138.727C101.73 137.394 102.084 136.269 103 135.352L116.375 121.977C117.292 121.06 118.334 120.435 119.5 120.102C120.667 119.769 121.875 119.727 123.125 119.977L132.875 121.977C133.292 121.56 133.647 121.185 133.94 120.852C134.23 120.519 134.584 120.144 135 119.727C140.667 114.06 146.772 109.727 153.315 106.727C159.855 103.727 167.167 102.102 175.25 101.852C175.75 101.852 176.23 101.935 176.69 102.102C177.147 102.269 177.584 102.56 178 102.977C178.417 103.394 178.689 103.81 178.815 104.227C178.939 104.644 179 105.102 179 105.602ZM107.375 161.477C109.042 159.81 111.064 158.999 113.44 159.042C115.814 159.082 117.834 159.935 119.5 161.602C121.167 163.269 122 165.289 122 167.662C122 170.039 121.167 172.06 119.5 173.727C117.917 175.31 115.417 176.664 112 177.787C108.584 178.914 104.959 179.602 101.125 179.852C101.375 176.019 102.084 172.394 103.25 168.977C104.417 165.56 105.792 163.06 107.375 161.477ZM109.875 164.102C108.875 165.102 107.959 166.685 107.125 168.852C106.292 171.019 105.75 173.269 105.5 175.602C107.834 175.352 110.084 174.789 112.25 173.912C114.417 173.039 116 172.102 117 171.102C118 170.102 118.5 168.915 118.5 167.542C118.5 166.165 118 164.977 117 163.977C116 162.977 114.814 162.499 113.44 162.542C112.064 162.582 110.875 163.102 109.875 164.102Z" fill="white"/>
</g>
<defs>
<linearGradient id="paint0_linear_415_1033" x1="140" y1="0.353027" x2="140" y2="280.353" gradientUnits="userSpaceOnUse">
<stop stop-color="#D1AB49"/>
<stop offset="1" stop-color="#D19C15"/>
</linearGradient>
<linearGradient id="paint1_linear_415_1033" x1="140" y1="12.1763" x2="140" y2="268.53" gradientUnits="userSpaceOnUse">
<stop stop-color="#D1AB49"/>
<stop offset="1" stop-color="#D19C15"/>
</linearGradient>
</defs>
</svg>
