<svg width="175" height="174" viewBox="0 0 175 174" fill="none" xmlns="http://www.w3.org/2000/svg">
<rect x="0.5" width="174" height="174" rx="87" fill="white"/>
<path d="M93.8688 108C92.8515 108 91.9795 107.637 91.2528 106.912C90.6714 106.187 90.3808 105.316 90.3808 104.301C90.3808 103.14 90.5988 101.979 91.0348 100.819L102.589 71.0052C103.316 69.5544 104.042 68.3938 104.769 67.5233C105.641 66.5078 107.022 66 108.911 66H116.105C117.268 66 118.14 66.4352 118.721 67.3057C119.448 68.1762 119.666 69.3368 119.375 70.7876L114.579 101.689C114.434 103.43 113.853 104.953 112.835 106.259C111.818 107.42 110.292 108 108.257 108H93.8688ZM58.9881 108C57.9707 108 57.0987 107.637 56.372 106.912C55.7907 106.187 55.5 105.316 55.5 104.301C55.5 103.14 55.718 101.979 56.154 100.819L67.7083 71.0052C68.435 69.5544 69.2343 68.3938 70.1063 67.5233C70.9783 66.5078 72.2864 66 74.0304 66H81.2246C82.3873 66 83.2593 66.4352 83.8406 67.3057C84.5673 68.1762 84.7853 69.3368 84.4946 70.7876L79.6985 101.689C79.5532 103.43 78.9719 104.953 77.9545 106.259C76.9371 107.42 75.4838 108 73.5944 108H58.9881Z" fill="#E5E1F3"/>
</svg>
