<svg width="128" height="129" viewBox="0 0 128 129" fill="none" xmlns="http://www.w3.org/2000/svg">
<mask id="mask0_303_5983" style="mask-type:alpha" maskUnits="userSpaceOnUse" x="0" y="0" width="128" height="129">
<rect y="0.353027" width="128" height="128" fill="#D9D9D9"/>
</mask>
<g mask="url(#mask0_303_5983)">
<path d="M82.9333 62.2198C82.4889 62.2198 82.0889 62.1523 81.7333 62.0172C81.3778 61.8856 81.0222 61.6865 80.6667 61.4198C73.3778 55.2865 67.4009 49.4643 62.736 43.9532C58.0675 38.442 55.7333 33.4198 55.7333 28.8865C55.7333 25.242 57.0009 22.1523 59.536 19.6172C62.0675 17.0856 65.1555 15.8198 68.8 15.8198C71.2 15.8198 73.6231 16.5078 76.0693 17.8838C78.512 19.2634 80.8 21.4198 82.9333 24.3532C85.0667 21.4198 87.3564 19.2634 89.8027 17.8838C92.2453 16.5078 94.6667 15.8198 97.0667 15.8198C100.711 15.8198 103.801 17.0856 106.336 19.6172C108.868 22.1523 110.133 25.242 110.133 28.8865C110.133 33.4198 107.801 38.442 103.136 43.9532C98.4675 49.4643 92.4889 55.2865 85.2 61.4198C84.9333 61.6865 84.6009 61.8856 84.2027 62.0172C83.8009 62.1523 83.3778 62.2198 82.9333 62.2198ZM82.9333 58.2198C89.2444 52.9754 94.7342 47.7754 99.4027 42.6198C104.068 37.4643 106.4 32.8865 106.4 28.8865C106.4 26.2198 105.511 23.9976 103.733 22.2198C101.956 20.442 99.7333 19.5532 97.0667 19.5532C95.5556 19.5532 93.8453 20.0189 91.936 20.9505C90.0231 21.8856 87.9111 23.9087 85.6 27.0198L82.9333 30.4865L80.2667 27.0198C77.9556 23.9087 75.8453 21.8856 73.936 20.9505C72.0231 20.0189 70.3111 19.5532 68.8 19.5532C66.1333 19.5532 63.9111 20.442 62.1333 22.2198C60.3555 23.9976 59.4667 26.2198 59.4667 28.8865C59.4667 32.8865 61.8009 37.4643 66.4693 42.6198C71.1342 47.7754 76.6222 52.9754 82.9333 58.2198ZM70.8 108.753C71.2444 108.931 71.6444 109.02 72 109.02C72.3555 109.02 72.7556 108.931 73.2 108.753L104 99.2865C104 97.4198 103.556 96.1078 102.667 95.3505C101.778 94.5967 100.8 94.2198 99.7333 94.2198H74.9333C72.7111 94.2198 70.6222 94.1096 68.6667 93.8892C66.7111 93.6652 64.7111 93.242 62.6667 92.6198L53.0667 89.5532C52.5333 89.3754 52.1564 89.0198 51.936 88.4865C51.712 87.9532 51.6889 87.4198 51.8667 86.8865C52.0444 86.442 52.3787 86.1096 52.8693 85.8892C53.3564 85.6652 53.8667 85.642 54.4 85.8198L63.4667 89.1532C65.2444 89.7754 67.2 90.1523 69.3333 90.2838C71.4667 90.4189 74.0444 90.4865 77.0667 90.4865H78.4C78.4 88.6198 78.0889 87.1532 77.4667 86.0865C76.8444 85.0198 75.9111 84.2643 74.6667 83.8198L44.1333 72.6198C43.8667 72.5309 43.6231 72.4634 43.4027 72.4172C43.1787 72.3745 42.9333 72.3532 42.6667 72.3532H30.6667V96.8865L70.8 108.753ZM69.8667 112.486L30.6667 100.886C30.2222 102.931 29.2444 104.554 27.7333 105.756C26.2222 106.954 24.5333 107.553 22.6667 107.553H20.5333C18.3111 107.553 16.4231 106.776 14.8693 105.222C13.312 103.665 12.5333 101.775 12.5333 99.5532V76.6198C12.5333 74.3976 13.312 72.5078 14.8693 70.9505C16.4231 69.3967 18.3111 68.6198 20.5333 68.6198H42.5333C42.9778 68.6198 43.4453 68.6643 43.936 68.7532C44.4231 68.842 44.8889 68.9754 45.3333 69.1532L76 80.3532C77.6 80.9754 79.0222 82.1078 80.2667 83.7505C81.5111 85.3967 82.1333 87.642 82.1333 90.4865H99.7333C102.578 90.4865 104.645 91.3523 105.936 93.0838C107.223 94.8189 107.867 96.9754 107.867 99.5532C107.867 100.353 107.644 101.064 107.2 101.686C106.756 102.309 106.133 102.753 105.333 103.02L74.5333 112.486C73.8222 112.664 73.0667 112.774 72.2667 112.817C71.4667 112.863 70.6667 112.753 69.8667 112.486ZM16.2667 99.5532C16.2667 100.798 16.6667 101.82 17.4667 102.62C18.2667 103.42 19.2889 103.82 20.5333 103.82H22.6667C23.9111 103.82 24.9333 103.486 25.7333 102.817C26.5333 102.152 26.9333 101.064 26.9333 99.5532V72.3532H20.5333C19.2889 72.3532 18.2667 72.7532 17.4667 73.5532C16.6667 74.3532 16.2667 75.3754 16.2667 76.6198V99.5532Z" fill="white"/>
</g>
<path d="M81.7334 62.0172C82.089 62.1523 82.489 62.2198 82.9334 62.2198C83.3778 62.2198 83.801 62.1523 84.2027 62.0172C84.601 61.8856 84.9334 61.6865 85.2001 61.4198C92.489 55.2865 98.4676 49.4643 103.136 43.9532C107.801 38.442 110.133 33.4198 110.133 28.8865C110.133 25.242 108.868 22.1523 106.336 19.6172C103.801 17.0856 100.711 15.8198 97.0667 15.8198C94.6667 15.8198 92.2454 16.5078 89.8027 17.8838C87.3565 19.2634 85.0667 21.4198 82.9334 24.3532C80.8001 21.4198 78.5121 19.2634 76.0694 17.8838C73.6232 16.5078 71.2001 15.8198 68.8001 15.8198C65.1556 15.8198 62.0676 17.0856 59.5361 19.6172C57.0009 22.1523 55.7334 25.242 55.7334 28.8865C55.7334 33.4198 58.0676 38.442 62.7361 43.9532C67.401 49.4643 73.3778 55.2865 80.6667 61.4198C81.0223 61.6865 81.3778 61.8856 81.7334 62.0172Z" fill="url(#paint0_linear_303_5983)"/>
<defs>
<linearGradient id="paint0_linear_303_5983" x1="82.9334" y1="15.8198" x2="82.9334" y2="62.2198" gradientUnits="userSpaceOnUse">
<stop stop-color="#D1AB49"/>
<stop offset="1" stop-color="#D19C15"/>
</linearGradient>
</defs>
</svg>
